<svg xmlns="http://www.w3.org/2000/svg" viewBox="0 0 120 120" width="100%" height="100%">
  <rect x="0" y="0" width="120" height="120" rx="20" fill="#F5F1EA"/>
  <g fill="#2B2F33">
    <polygon points="30,18 42,30 30,42 18,30"/>
    <polygon points="60,18 72,30 60,42 48,30"/>
    <polygon points="90,18 102,30 90,42 78,30"/>
    <polygon points="30,48 42,60 30,72 18,60"/>
    <polygon points="90,48 102,60 90,72 78,60"/>
    <polygon points="30,78 42,90 30,102 18,90"/>
    <polygon points="60,78 72,90 60,102 48,90"/>
    <polygon points="90,78 102,90 90,102 78,90"/>
  </g>
  <polygon points="60,48 72,60 60,72 48,60" fill="#B5651D"/>
</svg>
